<svg width="287" height="58" viewBox="0 0 287 58" fill="none" xmlns="http://www.w3.org/2000/svg">
<path fill-rule="evenodd" clip-rule="evenodd" d="M7.48552 47.2058C12.5832 43.0909 17.6632 40.7893 22.7603 40.687C27.8252 40.5853 32.8717 42.6716 37.9359 47.1664C38.4778 47.6473 39.3078 47.5975 39.7887 47.0562C40.2689 46.5143 40.2197 45.6843 39.6778 45.2034C34.027 40.1884 28.3585 37.9498 22.7078 38.0626C17.0898 38.1755 11.4548 40.6286 5.83745 45.1641C5.27388 45.6187 5.18531 46.446 5.64063 47.009C6.09529 47.5725 6.92195 47.6611 7.48552 47.2058Z" fill="#FCBC05"/>
<path fill-rule="evenodd" clip-rule="evenodd" d="M22.1376 14.8501C29.3768 23.2624 34.4659 33.8192 37.4288 46.5081C37.6072 47.2712 38.3715 47.7463 39.1346 47.5677C39.8976 47.3898 40.3726 46.6251 40.1948 45.8619C37.1178 32.6851 31.8082 21.7338 24.2902 12.9976C23.7791 12.4032 22.8816 12.3363 22.2879 12.8471C21.6935 13.3587 21.6265 14.2556 22.1376 14.8501Z" fill="#4285F4"/>
<path fill-rule="evenodd" clip-rule="evenodd" d="M8.07116 46.4449C10.5662 33.0574 16.1435 22.7591 24.2113 14.9434C24.7742 14.3984 24.7879 13.4984 24.2428 12.9359C23.6976 12.3727 22.7981 12.3582 22.2352 12.904C13.7744 21.0998 7.89599 31.8853 5.27891 45.9249C5.13523 46.6949 5.64434 47.4376 6.41457 47.5813C7.18546 47.7249 7.92748 47.2156 8.07116 46.4449Z" fill="#EA4335"/>
<path d="M22.8261 19.0435C26.4279 19.0435 29.3478 16.1236 29.3478 12.5217C29.3478 8.91989 26.4279 6 22.8261 6C19.2242 6 16.3043 8.91989 16.3043 12.5217C16.3043 16.1236 19.2242 19.0435 22.8261 19.0435Z" fill="#EA4335"/>
<path d="M6.52173 51C10.1236 51 13.0434 48.0801 13.0434 44.4783C13.0434 40.8764 10.1236 37.9565 6.52173 37.9565C2.91989 37.9565 0 40.8764 0 44.4783C0 48.0801 2.91989 51 6.52173 51Z" fill="#FCBC05"/>
<path d="M38.4783 51C42.0801 51 45 48.0801 45 44.4783C45 40.8764 42.0801 37.9565 38.4783 37.9565C34.8764 37.9565 31.9565 40.8764 31.9565 44.4783C31.9565 48.0801 34.8764 51 38.4783 51Z" fill="#4285F4"/>
<path d="M47.4902 48H53.5693V32.9854C53.5693 29.1523 55.6445 26.9795 59.0869 26.9795C60.1123 26.9795 61.04 27.126 61.5527 27.3213V21.8281C61.0889 21.7061 60.3809 21.584 59.624 21.584C56.6455 21.584 54.4971 23.4639 53.6914 26.5889H53.5693V22.1211H47.4902V48ZM75.3711 57.0576C82.8662 57.0576 87.5781 53.127 87.5781 47.2676V22.1211H81.499V26.5156H81.3525C79.8877 23.5371 77.0557 21.584 73.3936 21.584C66.8506 21.584 62.627 26.6133 62.627 34.792V34.8164C62.627 42.873 66.8018 47.8535 73.2959 47.8535C77.0068 47.8535 79.9365 46.0957 81.377 43.3369H81.499V47.0723C81.499 50.3682 79.3262 52.4678 75.3711 52.4678C72.1973 52.4678 70.1221 51.3447 69.4629 49.8555L69.3896 49.6602H63.4082L63.457 49.8799C64.1895 53.9326 68.5107 57.0576 75.3711 57.0576ZM75.2002 43.166C71.2939 43.166 68.8281 40.0166 68.8281 34.9141V34.8896C68.8281 29.8604 71.2939 26.7109 75.2002 26.7109C78.96 26.7109 81.5234 29.9092 81.5234 34.9141V34.9385C81.5234 39.9678 78.9844 43.166 75.2002 43.166ZM104.009 48.5127C111.602 48.5127 116.533 43.459 116.533 35.0605V35.0117C116.533 26.6621 111.528 21.584 103.984 21.584C96.4648 21.584 91.4844 26.7109 91.4844 35.0117V35.0605C91.4844 43.4346 96.3916 48.5127 104.009 48.5127ZM104.033 43.6055C100.151 43.6055 97.6855 40.5049 97.6855 35.0605V35.0117C97.6855 29.6406 100.2 26.5156 103.984 26.5156C107.842 26.5156 110.332 29.6162 110.332 35.0117V35.0605C110.332 40.4805 107.866 43.6055 104.033 43.6055ZM143.145 48.5859C151.201 48.5859 156.157 44.6309 156.157 38.3809V38.3564C156.157 32.9854 153.13 30.0557 145.903 28.4688L141.997 27.6143C137.407 26.6133 135.283 24.8066 135.283 21.9258V21.9014C135.283 18.5078 138.359 16.2617 143.071 16.2373C147.539 16.2373 150.542 18.3613 151.079 21.9502L151.128 22.292H155.522L155.498 21.9258C155.107 16.1641 150.078 12.1846 143.193 12.1846C135.942 12.1846 130.815 16.2373 130.791 22.0234V22.0479C130.791 27.1992 134.014 30.2998 140.898 31.8135L144.805 32.668C149.639 33.7422 151.665 35.4756 151.665 38.5762V38.6006C151.665 42.2383 148.467 44.5332 143.389 44.5332C138.286 44.5332 134.868 42.3604 134.355 38.8203L134.307 38.4785H129.912L129.937 38.8203C130.376 44.8506 135.527 48.5859 143.145 48.5859ZM171.172 48.4883C176.909 48.4883 181.084 44.7529 181.768 39.9189L181.792 39.748H177.617L177.568 39.9434C176.86 42.7754 174.639 44.7285 171.172 44.7285C166.777 44.7285 163.75 41.2373 163.75 35.3291V35.3047C163.75 29.543 166.704 25.8809 171.123 25.8809C174.858 25.8809 176.909 28.127 177.544 30.666L177.593 30.8613H181.743L181.719 30.666C181.182 26.3203 177.446 22.1211 171.123 22.1211C164.067 22.1211 159.404 27.248 159.404 35.2559V35.2803C159.404 43.3613 163.97 48.4883 171.172 48.4883ZM185.918 48H190.166V33.1807C190.166 28.8594 192.778 25.8809 196.709 25.8809C200.664 25.8809 203.008 28.5908 203.008 33.1807V48H207.256V32.4482C207.256 26.2959 203.569 22.1211 198.174 22.1211C194.39 22.1211 191.631 23.8057 190.264 26.6621H190.166V12.7705H185.918V48ZM223.174 48.4883C230.181 48.4883 234.917 43.4102 234.917 35.3047V35.2559C234.917 27.1504 230.156 22.1211 223.149 22.1211C216.143 22.1211 211.406 27.1748 211.406 35.2559V35.3047C211.406 43.3857 216.118 48.4883 223.174 48.4883ZM223.198 44.7285C218.706 44.7285 215.752 41.2861 215.752 35.3047V35.2559C215.752 29.3232 218.73 25.8809 223.149 25.8809C227.642 25.8809 230.571 29.2988 230.571 35.2559V35.3047C230.571 41.2617 227.666 44.7285 223.198 44.7285ZM239.434 48H243.682V12.7705H239.434V48ZM256.841 48.4883C260.234 48.4883 263.286 46.6572 264.775 43.874H264.873V48H269.121V30.4463C269.121 25.3682 265.361 22.1211 259.355 22.1211C253.374 22.1211 249.736 25.4902 249.37 29.665L249.346 29.9336H253.447L253.496 29.7139C253.984 27.4434 256.035 25.8809 259.307 25.8809C262.847 25.8809 264.873 27.7607 264.873 30.8613V32.9854L257.598 33.4004C251.763 33.7422 248.394 36.4521 248.394 40.7734V40.8223C248.394 45.4365 251.787 48.4883 256.841 48.4883ZM252.739 40.8223V40.7734C252.739 38.4053 254.692 36.8916 258.086 36.6963L264.873 36.2812V38.3564C264.873 42.043 261.797 44.8018 257.793 44.8018C254.741 44.8018 252.739 43.2637 252.739 40.8223ZM274.517 48H278.765V32.3262C278.765 28.4688 280.913 26.1738 284.209 26.1738C285.234 26.1738 286.138 26.2959 286.479 26.418V22.292C286.138 22.2432 285.503 22.1211 284.771 22.1211C281.914 22.1211 279.717 23.9766 278.862 26.9062H278.765V22.6094H274.517V48Z" fill="#565656"/>
</svg>
